<svg xmlns="http://www.w3.org/2000/svg" viewBox="7562.896 1385 435.439 73">
  <defs>
    <style>
      .cls-1 {
        fill: #fff;
      }

      .cls-2, .cls-5 {
        fill: none;
      }

      .cls-2 {
        stroke: #0ee6d0;
        stroke-width: 5px;
      }

      .cls-3 {
        fill: #0ee6d0;
      }

      .cls-4 {
        stroke: none;
      }
    </style>
  </defs>
  <g id="nom_du_festi" data-name="nom du festi" transform="translate(7094 1184)">
    <g id="Groupe_40" data-name="Groupe 40">
      <path id="Soustraction_1" data-name="Soustraction 1" class="cls-1" d="M-4253.485-1168.091a21.3,21.3,0,0,1-5.756-.777,21.919,21.919,0,0,1-5.186-2.2,22.061,22.061,0,0,1-4.409-3.412,22.061,22.061,0,0,1-3.412-4.409,21.9,21.9,0,0,1-2.2-5.186,21.311,21.311,0,0,1-.776-5.756,21.468,21.468,0,0,1,.776-5.771,21.549,21.549,0,0,1,2.2-5.186,22.164,22.164,0,0,1,3.412-4.394,21.623,21.623,0,0,1,4.409-3.4,22.261,22.261,0,0,1,5.186-2.182,21.291,21.291,0,0,1,5.756-.777,21.449,21.449,0,0,1,5.771.777,21.88,21.88,0,0,1,5.186,2.182,21.72,21.72,0,0,1,4.394,3.4,21.738,21.738,0,0,1,3.4,4.394,21.887,21.887,0,0,1,2.182,5.186,21.465,21.465,0,0,1,.777,5.771,21.31,21.31,0,0,1-.777,5.756,22.26,22.26,0,0,1-2.182,5.186,21.606,21.606,0,0,1-3.4,4.409,22.192,22.192,0,0,1-4.394,3.412,21.548,21.548,0,0,1-5.186,2.2A21.452,21.452,0,0,1-4253.485-1168.091Zm0-35.1a13.019,13.019,0,0,0-5.214,1.055,13.781,13.781,0,0,0-4.249,2.856,13.474,13.474,0,0,0-2.872,4.249,13.065,13.065,0,0,0-1.055,5.2,12.863,12.863,0,0,0,1.055,5.171,13.755,13.755,0,0,0,2.872,4.234,13.663,13.663,0,0,0,4.249,2.87,13.005,13.005,0,0,0,5.214,1.055,13.043,13.043,0,0,0,5.2-1.055,13.428,13.428,0,0,0,4.249-2.87,13.835,13.835,0,0,0,2.856-4.234,12.863,12.863,0,0,0,1.055-5.171,13.065,13.065,0,0,0-1.055-5.2,13.548,13.548,0,0,0-2.856-4.249,13.537,13.537,0,0,0-4.249-2.856A13.061,13.061,0,0,0-4253.485-1203.189Zm60.821,34.191h-8.995l-16.2-27.656V-1169h-8.408v-42.013h8.993l16.2,27.686v-27.686h8.408V-1169Zm-88.066,0h-8.408v-42.013h8.408V-1169Zm-25.459,0h-8.379v-33.6H-4327.2v-8.408h33.6v8.408h-12.6v33.6Zm-48.9,0h-8.379v-25.2a16.438,16.438,0,0,1,1.318-6.549,17.207,17.207,0,0,1,3.589-5.346,16.868,16.868,0,0,1,5.333-3.6,16.462,16.462,0,0,1,6.547-1.318,16.462,16.462,0,0,1,6.547,1.318,17.05,17.05,0,0,1,5.348,3.6,17.093,17.093,0,0,1,3.6,5.346,16.447,16.447,0,0,1,1.318,6.549V-1169h-8.408v-8.408h-16.816V-1169Zm8.408-33.605a8.243,8.243,0,0,0-3.266.66,8.478,8.478,0,0,0-2.681,1.8,8.526,8.526,0,0,0-1.8,2.681,8.256,8.256,0,0,0-.659,3.267v8.408h16.816v-8.408a8.255,8.255,0,0,0-.659-3.267,8.507,8.507,0,0,0-1.8-2.681,8.477,8.477,0,0,0-2.681-1.8A8.243,8.243,0,0,0-4346.678-1202.6Zm-32.11,33.605h-8.379v-33.6h-2.69a36.872,36.872,0,0,0-4.018-8.408h27.684v8.408h-12.6v33.6Zm-98.7,0h-8.407v-42.013h16.816a16.5,16.5,0,0,1,4.453.6,16.831,16.831,0,0,1,4,1.7,17.089,17.089,0,0,1,2.3,1.628,36.733,36.733,0,0,0-3.085,9.5,8.485,8.485,0,0,0-1.747-2.557,8.547,8.547,0,0,0-2.666-1.8,8.149,8.149,0,0,0-3.252-.66h-8.408v16.817h8.408a8.147,8.147,0,0,0,3.252-.66,8.544,8.544,0,0,0,2.666-1.8,8.34,8.34,0,0,0,1.184-1.492,36.979,36.979,0,0,0,5.213,17.723l1.279,3.016h-8.935l-3.662-8.468-9.4.059V-1169Zm-108.486,0h-8.407v-42.013h16.816a16.483,16.483,0,0,1,4.453.6,16.822,16.822,0,0,1,4,1.7,17.141,17.141,0,0,1,3.4,2.638,16.894,16.894,0,0,1,2.637,3.412,17.08,17.08,0,0,1,1.7,4.014,16.468,16.468,0,0,1,.6,4.453,16.512,16.512,0,0,1-.542,4.219,17.379,17.379,0,0,1-1.553,3.9,16.5,16.5,0,0,1-2.477,3.4,16.78,16.78,0,0,1-3.281,2.7l4.658,10.985h-8.935l-3.663-8.468-9.4.059V-1169Zm0-33.605v16.817h8.408a8.141,8.141,0,0,0,3.252-.66,8.521,8.521,0,0,0,2.666-1.8,8.518,8.518,0,0,0,1.8-2.681,8.252,8.252,0,0,0,.659-3.266,8.256,8.256,0,0,0-.659-3.267,8.526,8.526,0,0,0-1.8-2.681,8.538,8.538,0,0,0-2.666-1.8,8.144,8.144,0,0,0-3.252-.66Zm94.188,33.6h-28.8v-42.013h28.8v8.408h-20.39v8.409h13.8v8.408h-13.8v8.379h20.39V-1169Zm-34.687,0h-28.8v-42.013h28.8v8.408h-20.392v8.409h13.8v8.408h-13.8v8.379h20.392V-1169Zm-93.223,0h-8.407v-42.013h29.414v8.408H-4619.7v8.409h12.6v8.408h-12.6V-1169Z" transform="translate(5097 1431)"/>
      <g id="Groupe_40-2" data-name="Groupe 40">
        <g id="Ellipse_1" data-name="Ellipse 1" class="cls-2" transform="translate(638 206)">
          <circle class="cls-4" cx="34" cy="34" r="34"/>
          <circle class="cls-5" cx="34" cy="34" r="31.5"/>
        </g>
        <circle id="Ellipse_3" data-name="Ellipse 3" class="cls-3" cx="9" cy="9" r="9" transform="translate(652 201)"/>
      </g>
    </g>
  </g>
</svg>
